<svg width="96" height="96" viewBox="0 0 96 96" fill="none" xmlns="http://www.w3.org/2000/svg">
  <defs>
    <linearGradient id="grad" x1="16" y1="12" x2="84" y2="84" gradientUnits="userSpaceOnUse">
      <stop stop-color="#4A6FF2"/>
      <stop offset="1" stop-color="#38BDF8"/>
    </linearGradient>
    <filter id="shadow" x="-20" y="-20" width="136" height="136" filterUnits="userSpaceOnUse" color-interpolation-filters="sRGB">
      <feDropShadow dx="0" dy="10" stdDeviation="10" flood-opacity="0.25"/>
    </filter>
  </defs>
  <g filter="url(#shadow)">
    <rect x="12" y="12" width="72" height="72" rx="18" fill="url(#grad)"/>
    <path d="M48 26L18 38L48 50L78 38L48 26ZM60 52V61.5C60 64.5376 54.6274 67 48 67C41.3726 67 36 64.5376 36 61.5V52L48 56L60 52Z" fill="white"/>
    <path d="M73 41C70.2386 41 68 43.2386 68 46C68 48.7614 70.2386 51 73 51C75.7614 51 78 48.7614 78 46C78 43.2386 75.7614 41 73 41Z" fill="white"/>
  </g>
</svg>

